<?xml version="1.0" encoding="UTF-8" standalone="no"?>
<!DOCTYPE svg PUBLIC "-//W3C//DTD SVG 1.1//EN" "http://www.w3.org/Graphics/SVG/1.1/DTD/svg11.dtd">
<svg xmlns="http://www.w3.org/2000/svg" version="1.1" viewBox="0.00 0.00 307.00 326.00">
<path fill="#ffffff" d="
  M 184.53 209.20
  L 279.74 209.24
  Q 280.21 209.24 280.21 208.77
  L 279.97 148.18
  A 0.58 0.58 0.0 0 0 279.28 147.61
  C 254.97 152.50 237.55 170.88 228.96 193.72
  C 226.19 201.08 215.20 198.76 218.67 189.53
  C 229.88 159.69 253.50 138.70 285.75 135.26
  Q 287.21 135.10 289.26 135.28
  Q 289.74 135.32 289.74 135.80
  L 289.74 217.85
  Q 289.74 218.44 289.15 218.44
  L 171.02 218.44
  Q 170.47 218.44 170.55 217.89
  C 176.12 179.11 191.49 138.45 221.76 112.05
  Q 247.17 89.91 279.07 85.35
  Q 279.62 85.27 279.62 84.71
  L 279.62 22.55
  Q 279.62 21.74 278.82 21.84
  Q 227.86 28.33 189.31 62.28
  Q 165.89 82.90 150.65 109.56
  Q 150.31 110.17 149.96 109.57
  C 125.09 66.74 85.43 34.16 36.07 24.57
  Q 28.52 23.10 21.18 22.72
  Q 20.60 22.69 20.60 23.27
  L 20.79 85.56
  Q 20.79 86.15 21.38 86.22
  C 88.09 93.51 120.21 159.42 129.55 218.02
  A 0.36 0.36 0.0 0 1 129.19 218.43
  L 12.03 218.46
  Q 11.34 218.46 11.34 217.78
  L 11.17 135.54
  Q 11.17 134.84 11.87 134.87
  Q 47.88 136.52 68.53 164.63
  Q 77.76 177.18 81.98 190.44
  C 83.15 194.11 81.27 198.72 76.66 197.66
  Q 72.95 196.80 71.40 193.10
  C 63.23 173.65 49.93 157.04 30.33 149.59
  Q 25.87 147.89 20.85 147.34
  A 0.41 0.41 0.0 0 0 20.39 147.75
  L 20.40 208.32
  A 0.42 0.42 0.0 0 0 20.82 208.74
  L 114.75 208.74
  Q 115.35 208.74 115.22 208.16
  C 104.83 159.09 77.10 110.70 25.04 98.29
  Q 17.95 96.59 10.28 96.29
  Q 9.74 96.27 9.74 95.74
  L 9.74 11.28
  Q 9.74 10.71 10.30 10.72
  Q 46.90 11.18 79.79 28.28
  C 107.70 42.79 131.95 65.10 150.19 91.01
  A 0.28 0.28 0.0 0 0 150.65 91.00
  Q 179.14 46.49 228.51 25.24
  Q 252.80 14.79 280.51 11.36
  Q 285.34 10.77 289.26 10.82
  Q 289.74 10.83 289.74 11.31
  L 289.74 95.17
  Q 289.74 95.70 289.22 95.76
  C 231.50 102.49 197.61 150.58 185.05 203.30
  Q 184.41 206.01 184.09 208.71
  Q 184.03 209.20 184.53 209.20
  Z"
/>
<path fill="#ffffff" d="
  M 28.44 311.26
  L 16.82 311.27
  A 0.34 0.34 0.0 0 1 16.48 310.93
  L 16.48 259.21
  A 0.34 0.34 0.0 0 1 16.82 258.87
  L 30.20 258.89
  A 0.34 0.34 0.0 0 1 30.50 259.08
  L 49.66 298.01
  A 0.34 0.34 0.0 0 0 50.27 298.01
  L 69.46 259.07
  A 0.34 0.34 0.0 0 1 69.76 258.88
  L 82.94 258.87
  A 0.34 0.34 0.0 0 1 83.28 259.21
  L 83.28 310.93
  A 0.34 0.34 0.0 0 1 82.94 311.27
  L 71.52 311.26
  A 0.34 0.34 0.0 0 1 71.18 310.92
  L 71.18 280.80
  A 0.34 0.34 0.0 0 0 70.53 280.65
  L 55.81 311.07
  A 0.34 0.34 0.0 0 1 55.51 311.26
  L 44.43 311.24
  A 0.34 0.34 0.0 0 1 44.13 311.05
  L 29.33 280.47
  A 0.34 0.34 0.0 0 0 28.68 280.62
  L 28.78 310.92
  A 0.34 0.34 0.0 0 1 28.44 311.26
  Z"
/>
<path fill="#ffffff" d="
  M 123.92 283.94
  L 141.29 259.03
  A 0.35 0.35 0.0 0 1 141.57 258.88
  L 154.36 258.87
  A 0.35 0.35 0.0 0 1 154.64 259.43
  L 129.95 293.19
  A 0.35 0.35 0.0 0 0 129.88 293.39
  L 129.88 310.92
  A 0.35 0.35 0.0 0 1 129.53 311.27
  L 117.84 311.26
  A 0.35 0.35 0.0 0 1 117.49 310.91
  L 117.49 293.39
  A 0.35 0.35 0.0 0 0 117.42 293.19
  L 92.73 259.43
  A 0.35 0.35 0.0 0 1 93.01 258.87
  L 105.81 258.89
  A 0.35 0.35 0.0 0 1 106.09 259.04
  L 123.34 283.94
  A 0.35 0.35 0.0 0 0 123.92 283.94
  Z"
/>
<path fill="#ffffff" d="
  M 181.71 268.86
  L 160.18 268.82
  A 0.33 0.33 0.0 0 1 159.85 268.49
  L 159.92 259.20
  A 0.33 0.33 0.0 0 1 160.25 258.87
  L 216.42 258.88
  A 0.33 0.33 0.0 0 1 216.75 259.21
  L 216.77 268.45
  A 0.33 0.33 0.0 0 1 216.44 268.78
  L 194.82 268.86
  A 0.33 0.33 0.0 0 0 194.49 269.19
  L 194.49 310.93
  A 0.33 0.33 0.0 0 1 194.16 311.26
  L 182.40 311.26
  A 0.33 0.33 0.0 0 1 182.07 310.93
  L 182.04 269.19
  A 0.33 0.33 0.0 0 0 181.71 268.86
  Z"
/>
<path fill="#ffffff" d="
  M 270.50 279.45
  L 270.51 259.25
  A 0.38 0.38 0.0 0 1 270.89 258.87
  L 282.62 258.88
  A 0.38 0.38 0.0 0 1 283.00 259.26
  L 283.00 310.89
  A 0.38 0.38 0.0 0 1 282.62 311.27
  L 270.89 311.26
  A 0.38 0.38 0.0 0 1 270.51 310.88
  L 270.51 290.85
  A 0.38 0.38 0.0 0 0 270.13 290.47
  L 239.28 290.50
  A 0.38 0.38 0.0 0 0 238.90 290.88
  L 238.87 310.89
  A 0.38 0.38 0.0 0 1 238.49 311.27
  L 226.70 311.26
  A 0.38 0.38 0.0 0 1 226.32 310.88
  L 226.33 259.25
  A 0.38 0.38 0.0 0 1 226.71 258.87
  L 238.50 258.87
  A 0.38 0.38 0.0 0 1 238.88 259.25
  L 238.89 279.45
  A 0.38 0.38 0.0 0 0 239.27 279.83
  L 270.12 279.83
  A 0.38 0.38 0.0 0 0 270.50 279.45
  Z"
/>
</svg>
